<svg width="15" height="16" viewBox="0 0 15 16" fill="none" xmlns="http://www.w3.org/2000/svg">
<path d="M2.2916 3.9812C1.5836 4.70787 1.0696 5.6212 0.822266 6.63987" stroke="#02022B" stroke-width="1.25294" stroke-linecap="round" stroke-linejoin="round"/>
<path d="M5.1936 13.629C5.5876 13.7143 5.99627 13.7616 6.41627 13.7616C7.01094 13.7616 7.58494 13.671 8.12494 13.5036" stroke="#02022B" stroke-width="1.25294" stroke-linecap="round" stroke-linejoin="round"/>
<path d="M0.822998 9.3606C1.07033 10.3793 1.58433 11.2926 2.29233 12.0193" stroke="#02022B" stroke-width="1.25294" stroke-linecap="round" stroke-linejoin="round"/>
<path d="M11.9368 9.64233C11.6575 10.5837 11.1415 11.4217 10.4622 12.0943" stroke="#02022B" stroke-width="1.25294" stroke-linecap="round" stroke-linejoin="round"/>
<path d="M10.4622 3.90552C11.1415 4.57818 11.6568 5.41618 11.9368 6.35752" stroke="#02022B" stroke-width="1.25294" stroke-linecap="round" stroke-linejoin="round"/>
<path d="M5.1936 2.37142C5.5876 2.28609 5.99627 2.23876 6.41627 2.23876C7.01094 2.23876 7.58494 2.32942 8.12494 2.49676" stroke="#02022B" stroke-width="1.25294" stroke-linecap="round" stroke-linejoin="round"/>
<path d="M13.3562 6.8219C14.007 7.47277 14.007 8.52804 13.3562 9.17892C12.7053 9.82979 11.65 9.82979 10.9991 9.17892C10.3483 8.52804 10.3483 7.47277 10.9991 6.8219C11.65 6.17102 12.7053 6.17102 13.3562 6.8219" stroke="#02022B" stroke-width="1.25294" stroke-linecap="round" stroke-linejoin="round"/>
<path d="M4.88497 11.7128C5.53584 12.3636 5.53584 13.4189 4.88497 14.0698C4.2341 14.7207 3.17882 14.7207 2.52795 14.0698C1.87708 13.4189 1.87708 12.3636 2.52795 11.7128C3.17882 11.0619 4.2341 11.0619 4.88497 11.7128" stroke="#02022B" stroke-width="1.25294" stroke-linecap="round" stroke-linejoin="round"/>
<path d="M4.88497 1.93029C5.53584 2.58117 5.53584 3.63644 4.88497 4.28731C4.2341 4.93819 3.17882 4.93819 2.52795 4.28731C1.87708 3.63644 1.87708 2.58117 2.52795 1.93029C3.17882 1.27942 4.2341 1.27942 4.88497 1.93029" stroke="#02022B" stroke-width="1.25294" stroke-linecap="round" stroke-linejoin="round"/>
</svg>
