<svg width="14" height="14" viewBox="0 0 14 14" fill="none" xmlns="http://www.w3.org/2000/svg">
<path fill-rule="evenodd" clip-rule="evenodd" d="M6.33358 11.9275V4.0015C6.33358 3.5415 6.09691 3.11417 5.70691 2.87083L3.04024 1.20417C2.15224 0.6495 1.00024 1.2875 1.00024 2.33483V10.2602C1.00024 10.7202 1.23691 11.1475 1.62691 11.3908L4.29358 13.0575C5.18158 13.6128 6.33358 12.9742 6.33358 11.9275Z" stroke="#02022B" stroke-width="1.25294" stroke-linecap="round" stroke-linejoin="round"/>
<path d="M9.00024 6.33285H13.0002" stroke="#02022B" stroke-width="1.25294" stroke-linecap="round" stroke-linejoin="round"/>
<path d="M11.667 7.66618L13.0003 6.33284L11.667 4.99951" stroke="#02022B" stroke-width="1.25294" stroke-linecap="round" stroke-linejoin="round"/>
<path d="M6.3335 11.6663H9.00016C9.73683 11.6663 10.3335 11.0696 10.3335 10.3329V9.66626" stroke="#02022B" stroke-width="1.25294" stroke-linecap="round" stroke-linejoin="round"/>
<path d="M10.3337 2.99951V2.33284C10.3337 1.59618 9.73707 0.999512 9.00041 0.999512H2.33374" stroke="#02022B" stroke-width="1.25294" stroke-linecap="round" stroke-linejoin="round"/>
</svg>
