<svg width="16" height="16" viewBox="0 0 16 16" fill="none" xmlns="http://www.w3.org/2000/svg">
<path d="M3.33301 12.666L7.33301 8.66602" stroke="#02022B" stroke-width="1.25" stroke-linecap="round" stroke-linejoin="round"/>
<path d="M3.33333 2.00065V2.33398" stroke="#02022B" stroke-width="1.25" stroke-linecap="round" stroke-linejoin="round"/>
<path d="M3.33333 4.66602V4.33268" stroke="#02022B" stroke-width="1.25" stroke-linecap="round" stroke-linejoin="round"/>
<path d="M4.6665 3.33333H4.33317" stroke="#02022B" stroke-width="1.25" stroke-linecap="round" stroke-linejoin="round"/>
<path d="M2.00016 3.33333H2.3335" stroke="#02022B" stroke-width="1.25" stroke-linecap="round" stroke-linejoin="round"/>
<path d="M12.6663 11.3327V11.666" stroke="#02022B" stroke-width="1.25" stroke-linecap="round" stroke-linejoin="round"/>
<path d="M12.6668 14V13.6667" stroke="#02022B" stroke-width="1.25" stroke-linecap="round" stroke-linejoin="round"/>
<path d="M14 12.6673H13.6667" stroke="#02022B" stroke-width="1.25" stroke-linecap="round" stroke-linejoin="round"/>
<path d="M11.3337 12.6673H11.667" stroke="#02022B" stroke-width="1.25" stroke-linecap="round" stroke-linejoin="round"/>
<path d="M6.6665 13.3333L7.99984 12" stroke="#02022B" stroke-width="1.25" stroke-linecap="round" stroke-linejoin="round"/>
<path d="M2.6665 9.33333L3.99984 8" stroke="#02022B" stroke-width="1.25" stroke-linecap="round" stroke-linejoin="round"/>
<path fill-rule="evenodd" clip-rule="evenodd" d="M9.94253 8.38085L9.3914 6.60794L7.61847 6.05682C7.47116 6.01103 7.36263 5.88559 7.3385 5.73323C7.31437 5.58087 7.37883 5.42802 7.50477 5.33896L9.02063 4.26696L8.99692 2.41047C8.99494 2.25622 9.0807 2.11422 9.21814 2.04418C9.35559 1.97414 9.52088 1.98821 9.64451 2.08047L11.1325 3.19087L12.8907 2.59462C13.0368 2.54508 13.1984 2.58278 13.3075 2.69185C13.4165 2.80093 13.4542 2.96247 13.4047 3.10856L12.8084 4.86682L13.9188 6.35479C14.0111 6.47842 14.0252 6.64371 13.9551 6.78116C13.8851 6.91861 13.7431 7.00437 13.5888 7.00238L11.7324 6.97866L10.6604 8.49451C10.5713 8.62044 10.4185 8.6849 10.2661 8.66077C10.1138 8.63665 9.98834 8.52814 9.94253 8.38085Z" stroke="#02022B" stroke-width="1.25" stroke-linecap="round" stroke-linejoin="round"/>
</svg>
